<?xml version="1.0" encoding="UTF-8"?>
<svg width="99px" height="89px" viewBox="0 0 99 89" version="1.1" xmlns="http://www.w3.org/2000/svg" xmlns:xlink="http://www.w3.org/1999/xlink">
    <!-- Generator: sketchtool 52.2 (67145) - http://www.bohemiancoding.com/sketch -->
    <title>F2D4E6C3-2FD5-4ED5-96A8-6CE5545D3121</title>
    <desc>Created with sketchtool.</desc>
    <defs>
        <polygon id="path-1" points="0 0.159576277 46.9188469 0.159576277 46.9188469 33.3213482 0 33.3213482"></polygon>
    </defs>
    <g id="Home" stroke="none" stroke-width="1" fill="none" fill-rule="evenodd">
        <g transform="translate(-695.000000, -5033.000000)" id="Como-funciona">
            <g transform="translate(152.000000, 4921.000000)">
                <g id="Icono-pago" transform="translate(543.000000, 113.000000)">
                    <g id="Group-3" transform="translate(0.000000, 1.401845)">
                        <mask id="mask-2" fill="white">
                            <use xlink:href="#path-1"></use>
                        </mask>
                        <g id="Clip-2"></g>
                        <path d="M46.9188469,7.14720016 L46.5037175,1.9895319 C46.5037175,1.9895319 46.3873555,0.119353007 44.8568279,0.160236963 C43.7015941,0.191686159 1.51040009,3.08710887 1.51040009,3.08710887 C1.51040009,3.08710887 -0.2622863,3.21605058 0.0322878419,5.93535778 C0.328958597,8.66200314 1.44121185,32.5025908 2.4245234,33.265758 C3.14680662,33.8255537 34.7972782,29.9730271 34.7972782,29.9730271 L35.8543826,23.1121752 L38.4690776,21.0421447 L42.3023109,23.1121752 L50.3202826,28.976029 L46.9188469,7.14720016 Z" id="Fill-1" fill="#F3F5F6" mask="url(#mask-2)"></path>
                    </g>
                    <path d="M60.977791,40.7507159 C60.977791,40.7507159 41.9604617,21.79943 37.9328679,22.4609115 C35.2680727,22.8980553 32.8118904,27.5808407 39.2128502,35.4452365 C45.6148584,43.3106806 57.1367957,56.2971022 61.3436499,60.1370491 C65.5505042,63.9780443 68.6597814,60.5039564 71.2207943,65.8073393 C73.7807589,71.1117704 82.5603263,86.474703 82.5603263,86.474703" id="Stroke-4" stroke="#3F444C" stroke-width="1.54" stroke-linecap="round" stroke-linejoin="round"></path>
                    <path d="M45.8101579,5.61095601 C41.6515258,1.0361462 37.8042407,-1.75863908 35.2589524,1.25419396 C34.6404515,1.98591194 35.0744504,3.90640955 36.0252645,6.30074173" id="Stroke-6" stroke="#3F444C" stroke-width="1.54" stroke-linecap="round" stroke-linejoin="round"></path>
                    <path d="M97.9234686,78.4272729 C97.9234686,78.4272729 66.5340254,29.5929603 58.9086435,21.7285645 C56.3717416,19.1119913 54.2499691,16.2847085 51.3346286,12.6208771" id="Stroke-8" stroke="#3F444C" stroke-width="1.54" stroke-linecap="round" stroke-linejoin="round"></path>
                    <path d="M51.3342093,12.6204578 L50.9190799,7.46278955 C50.9190799,7.46278955 50.8027179,5.59261065 49.2721903,5.6334946 C48.1159082,5.6638955 5.92576247,8.56036651 5.92576247,8.56036651 C5.92576247,8.56036651 4.15307609,8.68930822 4.44765023,11.4086154 C4.74432098,14.1352608 5.85657424,37.9758485 6.83988579,38.7379674 C7.56216901,39.2988114 39.2126406,35.4452365 39.2126406,35.4452365" id="Stroke-10" stroke="#3F444C" stroke-width="1.54" stroke-linecap="round" stroke-linejoin="round"></path>
                    <path d="M52.9322478,32.4400561 L51.3346286,12.6207723" id="Stroke-12" stroke="#3F444C" stroke-width="1.54" stroke-linecap="round" stroke-linejoin="round"></path>
                    <path d="M34.8336544,35.9033464 C34.8336544,35.9033464 34.6397177,40.1102006 43.6016905,47.3340811 C43.6016905,47.3340811 46.619765,49.8961423 49.0895753,48.3404554" id="Stroke-14" stroke="#3F444C" stroke-width="1.54" stroke-linecap="round" stroke-linejoin="round"></path>
                    <path d="M38.8466767,43.8597835 C38.8466767,43.8597835 37.0184301,47.3338715 41.4076897,50.9012587 C45.7969492,54.4675976 49.8172049,56.8105627 52.4861934,55.2905182" id="Stroke-16" stroke="#3F444C" stroke-width="1.54" stroke-linecap="round" stroke-linejoin="round"></path>
                    <path d="M43.9898784,52.8728088 C43.9898784,52.8728088 41.2244457,59.7717143 56.4060212,61.2351502" id="Stroke-18" stroke="#3F444C" stroke-width="1.54" stroke-linecap="round" stroke-linejoin="round"></path>
                    <path d="M18.9278039,28.8784345 C18.9278039,30.8083669 17.3637305,32.3724403 15.4337981,32.3724403 C13.5038657,32.3724403 11.9387441,30.8083669 11.9387441,28.8784345 C11.9387441,26.9485022 13.5038657,25.3844288 15.4337981,25.3844288 C17.3637305,25.3844288 18.9278039,26.9485022 18.9278039,28.8784345 Z" id="Stroke-20" stroke="#3F444C" stroke-width="1.54" stroke-linecap="round" stroke-linejoin="round"></path>
                    <path d="M17.4986475,25.8317412 C18.1381145,25.0287384 19.1256193,24.5140198 20.2315827,24.5140198 C22.1615151,24.5140198 23.7255885,26.0791415 23.7255885,28.0090739 C23.7255885,29.9390063 22.1615151,31.5030797 20.2315827,31.5030797 C19.5229275,31.5030797 18.8635427,31.29237 18.3121334,30.929656" id="Stroke-22" stroke="#3F444C" stroke-width="1.54" stroke-linecap="round" stroke-linejoin="round"></path>
                </g>
            </g>
        </g>
    </g>
</svg>