<?xml version="1.0" encoding="UTF-8"?>
<svg width="80px" height="89px" viewBox="0 0 80 89" version="1.1" xmlns="http://www.w3.org/2000/svg" xmlns:xlink="http://www.w3.org/1999/xlink">
    <!-- Generator: sketchtool 52.2 (67145) - http://www.bohemiancoding.com/sketch -->
    <title>EBA32C03-719F-429F-99F7-2B9159EB07D9</title>
    <desc>Created with sketchtool.</desc>
    <defs>
        <path d="M10.186,0.376 L10.186,0.893 C10.186,1.44 10.33,1.836 10.548,2.12 C10.015,4.584 7.798,6.372 5.272,6.372 C3.705,6.372 2.217,5.692 1.189,4.505 L0.298,5.278 C1.549,6.724 3.361,7.552 5.272,7.552 C8.218,7.552 10.817,5.557 11.605,2.754 C11.874,2.816 12.135,2.835 12.341,2.835 C12.461,2.835 12.552,2.835 12.624,2.825 L12.735,2.804 L12.735,1.753 L12.674,1.753 C12.633,1.753 12.573,1.764 12.503,1.764 C12.138,1.764 11.471,1.652 11.471,0.761 L11.471,0.376 L10.186,0.376 Z" id="path-1"></path>
    </defs>
    <g id="Home" stroke="none" stroke-width="1" fill="none" fill-rule="evenodd">
        <g transform="translate(-1104.000000, -5034.000000)" id="Como-funciona">
            <g transform="translate(152.000000, 4921.000000)">
                <g id="Icon-delivery" transform="translate(952.000000, 112.000000)">
                    <g id="Group-23" transform="translate(0.000000, 0.900000)">
                        <path d="M75.6764,47.3854 C75.6764,47.3854 75.8304,45.7834 74.6434,45.5144 C73.1714,45.1794 42.7784,45.4484 34.7754,45.5024 C33.8404,45.5084 33.0704,46.2284 33.0004,47.1594 C32.2484,57.3424 28.2624,83.4324 28.9634,84.1344 C29.7384,84.9084 79.2604,85.4244 79.6474,85.0374 C80.0344,84.6504 75.6764,47.3854 75.6764,47.3854" id="Fill-1" fill="#F2F3F5"></path>
                        <path d="M40.5104,43.1466 C38.4314,44.2036 37.6294,44.3366 34.9784,43.2506 C28.5834,40.6316 28.9494,35.5306 26.5314,34.6226 C24.1144,33.7136 14.5314,28.7456 14.5314,28.7456" id="Stroke-3" stroke="#3F444C" stroke-width="1.54" stroke-linecap="round" stroke-linejoin="round"></path>
                        <path d="M7.53,14.7604 C7.53,14.7604 20.438,20.3504 23.764,18.8414 C27.091,17.3314 27.938,16.1734 30.986,9.1334 C34.033,2.0934 35.567,2.8804 35.877,4.0154 C36.187,5.1504 34.223,12.5394 33.687,13.3454 C33.152,14.1524 42.615,0.1554 44.441,0.9034 C46.268,1.6514 42.754,9.1404 38.792,15.1084 C38.792,15.1084 51.671,2.9384 52.802,5.0834 C53.934,7.2294 42.937,21.1144 41.918,21.5994 C40.899,22.0844 47.447,20.6224 49.332,23.7334 C51.217,26.8434 51.818,32.5884 48.495,35.4934 C45.172,38.3994 46.386,27.8194 45.15,27.2314 C43.914,26.6424 38.383,26.2234 36.135,30.3084 C33.888,34.3934 36.259,38.5234 38.835,38.1424 C40.346,37.9194 42.382,37.1344 44.025,36.6544" id="Stroke-5" stroke="#3F444C" stroke-width="1.54" stroke-linecap="round" stroke-linejoin="round"></path>
                        <path d="M17.0026,20.6256 C17.0026,20.6256 13.9296,31.5996 12.3896,31.9706 C10.8496,32.3426 0.9436,28.2496 0.9436,28.2496" id="Stroke-7" stroke="#3F444C" stroke-width="1.54" stroke-linecap="round" stroke-linejoin="round"></path>
                        <path d="M49.3493,34.5753 C54.0713,35.0083 57.5123,39.8023 57.0523,48.0753" id="Stroke-9" stroke="#3F444C" stroke-width="1.54" stroke-linecap="round" stroke-linejoin="round"></path>
                        <path d="M40.5651,48.0758 C40.5651,48.0758 38.6891,37.5408 46.4331,35.6058 C46.6161,35.5598 46.6181,35.5558 46.7961,35.5168" id="Stroke-11" stroke="#3F444C" stroke-width="1.54" stroke-linecap="round" stroke-linejoin="round"></path>
                        <path d="M47.7438,37.3746 C51.9068,37.8026 54.6248,41.1456 54.2408,48.0596" id="Stroke-13" stroke="#3F444C" stroke-width="1.54" stroke-linecap="round" stroke-linejoin="round"></path>
                        <path d="M47.7438,37.3746 C47.6688,37.3846 47.5648,37.4046 47.4428,37.4326 C45.7138,37.8226 44.3178,39.1346 43.8508,40.8446 C43.4338,42.3716 43.1518,44.6656 43.3558,48.0756" id="Stroke-15" stroke="#3F444C" stroke-width="1.54" stroke-linecap="round" stroke-linejoin="round"></path>
                        <path d="M72.1169,50.0905 C72.1169,50.0905 72.2709,48.4885 71.0839,48.2195 C69.6119,47.8845 39.2189,48.1535 31.2159,48.2075 C30.2809,48.2135 29.5109,48.9335 29.4419,49.8645 C28.6889,60.0475 24.7029,86.1375 25.4039,86.8395 C26.1789,87.6135 75.7009,88.1295 76.0889,87.7425 C76.4749,87.3555 72.1169,50.0905 72.1169,50.0905 Z" id="Stroke-17" stroke="#3F444C" stroke-width="1.54" stroke-linecap="round" stroke-linejoin="round"></path>
                        <path d="M65.7301,52.3893 L64.5391,87.8743" id="Stroke-19" stroke="#3F444C" stroke-width="1.54" stroke-linecap="round" stroke-linejoin="round"></path>
                        <path d="M51.6745,65.7526 C51.6335,65.7526 51.5725,65.7636 51.5025,65.7636 C51.1385,65.7636 50.4715,65.6516 50.4715,64.7616 L50.4715,64.3756 L49.1865,64.3756 L49.1865,64.8936 C49.1865,65.4406 49.3295,65.8356 49.5475,66.1196 C49.0155,68.5846 46.7985,70.3716 44.2725,70.3716 C42.7045,70.3716 41.2165,69.6916 40.1895,68.5056 L39.2975,69.2776 C40.5485,70.7236 42.3615,71.5526 44.2725,71.5526 C47.2175,71.5526 49.8175,69.5576 50.6055,66.7536 C50.8735,66.8156 51.1355,66.8346 51.3405,66.8346 C51.4615,66.8346 51.5525,66.8346 51.6235,66.8246 L51.7355,66.8046 L51.7355,65.7526 L51.6745,65.7526 Z" id="Fill-21" fill="#3F444C"></path>
                    </g>
                    <g id="Group-27" transform="translate(39.000000, 64.900000)">
                        <mask id="mask-2" fill="white">
                            <use xlink:href="#path-1"></use>
                        </mask>
                        <g id="Clip-25"></g>
                        <polygon id="Fill-24" fill="#3F444C" mask="url(#mask-2)" points="-47 1941 306.148 1941 306.148 -10.931 -47 -10.931"></polygon>
                        <polygon id="Fill-26" fill="#3F444C" mask="url(#mask-2)" points="-0.936 8.785 13.968 8.785 13.968 -0.857 -0.936 -0.857"></polygon>
                    </g>
                </g>
            </g>
        </g>
    </g>
</svg>