<?xml version="1.0" encoding="UTF-8"?>
<svg width="113px" height="88px" viewBox="0 0 113 88" version="1.1" xmlns="http://www.w3.org/2000/svg" xmlns:xlink="http://www.w3.org/1999/xlink">
    <!-- Generator: sketchtool 52.2 (67145) - http://www.bohemiancoding.com/sketch -->
    <title>82E6AE3C-4E2A-4024-818F-DEBAE4DCF7EC</title>
    <desc>Created with sketchtool.</desc>
    <g id="Home" stroke="none" stroke-width="1" fill="none" fill-rule="evenodd">
        <g transform="translate(-280.000000, -5034.000000)" id="Como-funciona">
            <g transform="translate(152.000000, 4921.000000)">
                <g id="Icon-menú" transform="translate(129.000000, 114.000000)">
                    <path d="M39.7784,44.4781 C29.8544,23.8071 42.9844,25.8531 42.9844,25.8531 C46.8004,11.5011 56.9844,23.8071 56.9844,23.8071 C56.9844,23.8071 59.3204,21.2721 61.6104,20.8141 C63.9004,20.3561 66.4954,22.3411 66.0374,23.8071 C65.5794,25.2731 64.2054,48.9001 64.2054,48.9001 C60.6944,48.8951 42.9844,48.9001 42.9844,48.9001 L39.7784,44.4781 Z" id="Fill-1" fill="#F2F3F5"></path>
                    <path d="M71.1202,48.9 C71.1202,48.9 66.5852,21.883 71.1202,15.318 C75.6552,8.754 82.9832,15.318 82.9832,15.318 C82.9832,15.318 87.8692,7.074 94.5872,10.891 C101.3042,14.708 98.0982,22.494 98.0982,22.494 C98.0982,22.494 105.9122,20.662 107.1192,27.99 C108.3272,35.318 92.4492,48.9 92.4492,48.9 L71.1202,48.9 Z" id="Fill-3" fill="#F2F3F5"></path>
                    <path d="M40.0747,44.4273 C40.0747,44.4273 30.5217,47.1563 32.3537,48.6833 C34.1857,50.2093 68.9937,54.1793 91.8947,50.8213 C91.8947,50.8213 116.6937,48.5543 109.6047,45.0193 C105.0357,42.7413 103.0657,44.6833 103.0657,44.6833" id="Stroke-5" stroke="#3F444C" stroke-width="1.54" stroke-linecap="round" stroke-linejoin="round"></path>
                    <path d="M32.104,52.1324 C32.104,52.1324 34.186,73.7214 56.17,80.1334 C56.17,80.1334 69.605,80.7754 80.292,80.4704" id="Stroke-7" stroke="#3F444C" stroke-width="1.54" stroke-linecap="round" stroke-linejoin="round"></path>
                    <path d="M110.792,46.6051 C110.792,46.6051 109.605,73.7211 88.536,79.5221 L88.536,85.3241 L56.198,85.3241 L56.17,80.1331" id="Stroke-9" stroke="#3F444C" stroke-width="1.54" stroke-linecap="round" stroke-linejoin="round"></path>
                    <path d="M44.2881,50.7457 C44.2881,50.7457 34.9491,39.5227 38.9181,34.4847 C38.9181,34.4847 41.0561,31.5837 45.3301,32.3477 C45.3301,32.3477 44.2621,23.4927 49.6051,22.7297 C54.9491,21.9657 58.6131,28.6837 58.6131,28.6837 C58.6131,28.6837 63.3461,24.7137 66.7041,26.5457 C70.0621,28.3777 70.2161,31.2787 70.2161,31.2787" id="Stroke-11" stroke="#3F444C" stroke-width="1.54" stroke-linecap="round" stroke-linejoin="round"></path>
                    <path d="M72.0499,52.1275 C72.0499,52.1275 68.5359,44.5005 69.6049,36.1335 C70.6739,27.7675 73.4219,17.9965 77.5439,16.3165 C81.6659,14.6375 84.5669,20.4395 84.5669,20.4395 C84.5669,20.4395 89.4519,12.1955 97.2379,16.0125 C105.0249,19.8285 99.8329,27.6145 99.8329,27.6145 C99.8329,27.6145 105.7869,27.6145 107.1609,30.5155 C108.5349,33.4165 105.1759,45.7445 97.5429,50.1715" id="Stroke-13" stroke="#3F444C" stroke-width="1.54" stroke-linecap="round" stroke-linejoin="round"></path>
                    <path d="M89.7569,26.8517 C89.7569,26.8517 82.2229,42.7447 80.3909,51.6667" id="Stroke-15" stroke="#3F444C" stroke-width="1.54" stroke-linecap="round" stroke-linejoin="round"></path>
                    <path d="M99.0704,37.0802 C99.0704,37.0802 86.7124,40.1342 80.9064,49.5992" id="Stroke-17" stroke="#3F444C" stroke-width="1.54" stroke-linecap="round" stroke-linejoin="round"></path>
                    <path d="M50.6739,31.7369 C50.6739,31.7369 57.5159,43.8719 60.7369,51.9259" id="Stroke-19" stroke="#3F444C" stroke-width="1.54" stroke-linecap="round" stroke-linejoin="round"></path>
                    <path d="M62.5821,36.1339 C62.5821,36.9279 60.0471,43.6839 57.3451,44.4269" id="Stroke-21" stroke="#3F444C" stroke-width="1.54" stroke-linecap="round" stroke-linejoin="round"></path>
                    <path d="M45.4268,75.19 L43.6748,85.324 L15.2568,85.324 C13.9828,79.821 -0.7052,-1.213 0.0878,0.071 L54.0758,0.071 L52.1448,15.003" id="Stroke-23" stroke="#3F444C" stroke-width="1.54" stroke-linecap="round" stroke-linejoin="round"></path>
                    <path d="M6.7368,39.2589 C6.7368,39.2589 13.5688,31.7009 20.9258,32.2009 C23.5188,32.3779 38.1158,36.1339 38.1158,36.1339" id="Stroke-25" stroke="#3F444C" stroke-width="1.54" stroke-linecap="round" stroke-linejoin="round"></path>
                </g>
            </g>
        </g>
    </g>
</svg>